<?xml version="1.0" encoding="UTF-8"?>
<svg xmlns="http://www.w3.org/2000/svg" viewBox="0 0 1280 920" width="1280" height="920">
  <defs>
    <linearGradient id="bg" x1="0" y1="0" x2="0" y2="1"><stop offset="0%" stop-color="#f8f9fc"/><stop offset="100%" stop-color="#eef1f8"/></linearGradient>
    <linearGradient id="uiGrad" x1="0" y1="0" x2="1" y2="0"><stop offset="0%" stop-color="#7c4dff"/><stop offset="100%" stop-color="#6200ee"/></linearGradient>
    <linearGradient id="ctrlGrad" x1="0" y1="0" x2="1" y2="0"><stop offset="0%" stop-color="#536dfe"/><stop offset="100%" stop-color="#3d5afe"/></linearGradient>
    <linearGradient id="bizGrad" x1="0" y1="0" x2="1" y2="0"><stop offset="0%" stop-color="#26a69a"/><stop offset="100%" stop-color="#00897b"/></linearGradient>
    <linearGradient id="jniGrad" x1="0" y1="0" x2="1" y2="0"><stop offset="0%" stop-color="#ffb74d"/><stop offset="100%" stop-color="#fb8c00"/></linearGradient>
    <linearGradient id="nativeGrad" x1="0" y1="0" x2="1" y2="0"><stop offset="0%" stop-color="#ff7043"/><stop offset="100%" stop-color="#e64a19"/></linearGradient>
    <linearGradient id="osGrad" x1="0" y1="0" x2="1" y2="0"><stop offset="0%" stop-color="#455a64"/><stop offset="100%" stop-color="#263238"/></linearGradient>
    <marker id="arrow" markerWidth="10" markerHeight="10" refX="9" refY="5" orient="auto"><path d="M0,0 L10,5 L0,10 z" fill="#546e7a"/></marker>
    <filter id="shadow" x="-20%" y="-20%" width="140%" height="140%"><feDropShadow dx="0" dy="3" stdDeviation="4" flood-color="#000" flood-opacity=".12"/></filter>
    <style>
      .title{font:700 28px "Segoe UI","PingFang SC","Microsoft YaHei",sans-serif;fill:#1a237e}
      .subtitle{font:400 14px "Segoe UI","PingFang SC","Microsoft YaHei",sans-serif;fill:#546e7a}
      .layer-title{font:700 16px "Segoe UI","PingFang SC","Microsoft YaHei",sans-serif;fill:#fff}
      .layer-sub{font:400 12px "Segoe UI","PingFang SC","Microsoft YaHei",sans-serif;fill:rgba(255,255,255,.92)}
      .box-title{font:700 14px "Segoe UI","PingFang SC","Microsoft YaHei",sans-serif;fill:#263238}
      .box-text{font:400 12px "Segoe UI","PingFang SC","Microsoft YaHei",sans-serif;fill:#455a64}
      .mono{font:400 11px Consolas,monospace;fill:#37474f}
      .legend-text{font:400 12px "Segoe UI","PingFang SC","Microsoft YaHei",sans-serif;fill:#37474f}
      .note{font:400 11px "Segoe UI","PingFang SC","Microsoft YaHei",sans-serif;fill:#78909c}
    </style>
  </defs>
  <rect width="1280" height="920" fill="url(#bg)"/>
  <text x="640" y="42" text-anchor="middle" class="title">&#x6C99;&#x7BB1; Demo &#x7CFB;&#x7EDF;&#x67B6;&#x6784;&#x56FE;</text>
  <text x="640" y="68" text-anchor="middle" class="subtitle">com.example.san | Android &#x5E94;&#x7528;&#x6C99;&#x7BB1; + Native Seccomp &#x53CC;&#x5C42;&#x9694;&#x79BB;&#x6F14;&#x793A;</text>
  <g filter="url(#shadow)"><rect x="490" y="88" width="300" height="52" rx="26" fill="#fff" stroke="#cfd8dc"/><text x="640" y="119" text-anchor="middle" class="box-title">&#x7528;&#x6237; / &#x6D4B;&#x8BD5;&#x4EBA;&#x5458;</text></g>
  <line x1="640" y1="140" x2="640" y2="162" stroke="#546e7a" stroke-width="2" marker-end="url(#arrow)"/>
  <g filter="url(#shadow)">
    <rect x="80" y="162" width="1120" height="108" rx="12" fill="url(#uiGrad)"/>
    <text x="104" y="192" class="layer-title">&#x8868;&#x73B0;&#x5C42; UI</text>
    <text x="104" y="212" class="layer-sub">activity_main.xml + ViewBinding</text>
    <rect x="104" y="228" width="170" height="28" rx="6" fill="rgba(255,255,255,.18)"/><text x="189" y="246" text-anchor="middle" class="layer-sub">4 &#x4E2A;&#x6F14;&#x793A;&#x6309;&#x94AE;</text>
    <rect x="290" y="228" width="170" height="28" rx="6" fill="rgba(255,255,255,.18)"/><text x="375" y="246" text-anchor="middle" class="layer-sub">info_text &#x4FE1;&#x606F;&#x5361;&#x7247;</text>
    <rect x="476" y="228" width="170" height="28" rx="6" fill="rgba(255,255,255,.18)"/><text x="561" y="246" text-anchor="middle" class="layer-sub">log_scroll &#x65E5;&#x5FD7;&#x533A;</text>
    <rect x="662" y="228" width="220" height="28" rx="6" fill="rgba(255,255,255,.18)"/><text x="772" y="246" text-anchor="middle" class="layer-sub">btn_clear_log &#x6E05;&#x7A7A;&#x65E5;&#x5FD7;</text>
  </g>
  <line x1="640" y1="270" x2="640" y2="292" stroke="#546e7a" stroke-width="2" marker-end="url(#arrow)"/>
  <g filter="url(#shadow)">
    <rect x="180" y="292" width="920" height="96" rx="12" fill="url(#ctrlGrad)"/>
    <text x="204" y="322" class="layer-title">&#x63A7;&#x5236;&#x5C42; Controller</text>
    <text x="204" y="342" class="layer-sub">MainActivity.kt</text>
    <rect x="204" y="354" width="200" height="24" rx="5" fill="rgba(255,255,255,.18)"/><text x="304" y="370" text-anchor="middle" class="layer-sub">onCreate() &#x521D;&#x59CB;&#x5316;</text>
    <rect x="420" y="354" width="200" height="24" rx="5" fill="rgba(255,255,255,.18)"/><text x="520" y="370" text-anchor="middle" class="layer-sub">runDemo(title, block)</text>
    <rect x="636" y="354" width="200" height="24" rx="5" fill="rgba(255,255,255,.18)"/><text x="736" y="370" text-anchor="middle" class="layer-sub">appendLog() &#x8F93;&#x51FA;&#x7ED3;&#x679C;</text>
    <rect x="852" y="354" width="220" height="24" rx="5" fill="rgba(255,255,255,.18)"/><text x="962" y="370" text-anchor="middle" class="layer-sub">&#x6309;&#x94AE;&#x8DEF;&#x7531;&#x5230;&#x5BF9;&#x5E94; Demo</text>
  </g>
  <line x1="420" y1="388" x2="320" y2="430" stroke="#546e7a" stroke-width="2" marker-end="url(#arrow)"/>
  <line x1="640" y1="388" x2="640" y2="430" stroke="#546e7a" stroke-width="2" marker-end="url(#arrow)"/>
  <line x1="860" y1="388" x2="960" y2="430" stroke="#546e7a" stroke-width="2" marker-end="url(#arrow)"/>
  <text x="250" y="422" class="note">Demo &#x2460;&#x2461;</text><text x="610" y="422" class="note">Demo &#x2462;&#x2463; &#x51C6;&#x5907;&#x6587;&#x4EF6;</text><text x="890" y="422" class="note">Demo &#x2462;&#x2463;</text>
  <g filter="url(#shadow)">
    <rect x="80" y="430" width="560" height="170" rx="12" fill="url(#bizGrad)"/>
    <text x="104" y="460" class="layer-title">&#x4E1A;&#x52A1;&#x5C42; Android &#x6C99;&#x7BB1;&#x6F14;&#x793A;</text>
    <text x="104" y="480" class="layer-sub">SandboxDemo.kt (Kotlin / JVM)</text>
    <rect x="104" y="494" width="240" height="88" rx="8" fill="#fff" fill-opacity=".95"/>
    <text x="120" y="516" class="box-title">Demo &#x2460; demoPrivateFileAccess()</text>
    <text x="120" y="536" class="box-text">&#x5199;&#x5165; filesDir/sandbox_secret.txt</text>
    <text x="120" y="554" class="box-text">&#x8BFB;&#x56DE;&#x5E76;&#x6821;&#x9A8C;&#x79C1;&#x6709;&#x76EE;&#x5F55;&#x53EF;&#x8BBF;&#x95EE;</text>
    <text x="120" y="572" class="mono">path: context.filesDir</text>
    <rect x="364" y="494" width="250" height="88" rx="8" fill="#fff" fill-opacity=".95"/>
    <text x="380" y="516" class="box-title">Demo &#x2461; demoCrossBoundaryRead()</text>
    <text x="380" y="536" class="box-text">canRead() &#x68C0;&#x6D4B; settings &#x76EE;&#x5F55;</text>
    <text x="380" y="554" class="box-text">&#x5BF9;&#x6BD4;&#x672C;&#x5E94;&#x7528;&#x76EE;&#x5F55; UID &#x9694;&#x79BB;</text>
    <text x="380" y="572" class="mono">/data/data/com.android.settings</text>
  </g>
  <g filter="url(#shadow)">
    <rect x="680" y="430" width="520" height="78" rx="12" fill="url(#jniGrad)"/>
    <text x="704" y="460" class="layer-title">JNI &#x6865;&#x63A5;&#x5C42;</text>
    <text x="704" y="480" class="layer-sub">SandboxNative.kt + System.loadLibrary("san")</text>
    <rect x="704" y="488" width="220" height="24" rx="5" fill="rgba(255,255,255,.18)"/><text x="814" y="504" text-anchor="middle" class="layer-sub">runNativeFileRead(path)</text>
    <rect x="944" y="488" width="240" height="24" rx="5" fill="rgba(255,255,255,.18)"/><text x="1064" y="504" text-anchor="middle" class="layer-sub">runSeccompBlockedRead(path)</text>
  </g>
  <g filter="url(#shadow)">
    <rect x="680" y="522" width="520" height="78" rx="12" fill="url(#nativeGrad)"/>
    <text x="704" y="552" class="layer-title">Native &#x5C42; libsan.so</text>
    <text x="704" y="572" class="layer-sub">native-lib.cpp + CMake</text>
    <rect x="704" y="580" width="220" height="24" rx="5" fill="rgba(255,255,255,.18)"/><text x="814" y="596" text-anchor="middle" class="layer-sub">readFilePreview() openat</text>
    <rect x="944" y="580" width="240" height="24" rx="5" fill="rgba(255,255,255,.18)"/><text x="1064" y="596" text-anchor="middle" class="layer-sub">fork + Seccomp + childTryOpen()</text>
  </g>
  <line x1="360" y1="600" x2="360" y2="640" stroke="#546e7a" stroke-width="2" marker-end="url(#arrow)"/>
  <line x1="940" y1="600" x2="940" y2="640" stroke="#546e7a" stroke-width="2" marker-end="url(#arrow)"/>
  <g filter="url(#shadow)">
    <rect x="80" y="640" width="560" height="130" rx="12" fill="url(#osGrad)"/>
    <text x="104" y="670" class="layer-title">Android Framework / &#x6587;&#x4EF6;&#x7CFB;&#x7EDF;</text>
    <text x="104" y="690" class="layer-sub">&#x6BCF;&#x4E2A; APK &#x72EC;&#x7ACB; UID + &#x79C1;&#x6709;&#x76EE;&#x5F55; ACL</text>
    <rect x="104" y="702" width="240" height="52" rx="8" fill="rgba(255,255,255,.12)"/>
    <text x="120" y="724" class="layer-sub">/data/data/&lt;package&gt;/files/</text>
    <text x="120" y="742" class="layer-sub">&#x8DE8; UID &#x8BBF;&#x95EE; = Permission Denied</text>
    <rect x="364" y="702" width="250" height="52" rx="8" fill="rgba(255,255,255,.12)"/>
    <text x="380" y="724" class="layer-sub">Process.myUid() &#x6807;&#x8BC6;&#x5E94;&#x7528;&#x8EAB;&#x4EFD;</text>
    <text x="380" y="742" class="layer-sub">File.canRead() &#x89E6;&#x53D1;&#x5185;&#x6838;&#x6743;&#x9650;&#x68C0;&#x67E5;</text>
  </g>
  <g filter="url(#shadow)">
    <rect x="680" y="640" width="520" height="130" rx="12" fill="url(#osGrad)"/>
    <text x="704" y="670" class="layer-title">Linux Kernel + Seccomp BPF</text>
    <text x="704" y="690" class="layer-sub">prctl + seccomp(SECCOMP_MODE_FILTER)</text>
    <rect x="704" y="702" width="240" height="52" rx="8" fill="rgba(255,255,255,.12)"/>
    <text x="720" y="724" class="layer-sub">&#x5141;&#x8BB8;: &#x9ED8;&#x8BA4; ALLOW</text>
    <text x="720" y="742" class="layer-sub">&#x62E6;&#x622A;: SYS_openat = EPERM</text>
    <rect x="964" y="702" width="220" height="52" rx="8" fill="rgba(255,255,255,.12)"/>
    <text x="980" y="724" class="layer-sub">fork() &#x5B50;&#x8FDB;&#x7A0B;&#x9694;&#x79BB;</text>
    <text x="980" y="742" class="layer-sub">waitpid() &#x6536;&#x96C6;&#x9000;&#x51FA;&#x7801;</text>
  </g>
  <rect x="80" y="792" width="1120" height="108" rx="12" fill="#fff" stroke="#cfd8dc" filter="url(#shadow)"/>
  <text x="104" y="818" class="box-title">&#x6570;&#x636E;&#x6D41;&#x4E0E;&#x4F9D;&#x8D56;&#x5173;&#x7CFB;</text>
  <text x="104" y="842" class="box-text">&#x7528;&#x6237;&#x70B9;&#x51FB; -&gt; MainActivity -&gt; SandboxDemo/SandboxNative -&gt; appendLog -&gt; log_text</text>
  <text x="104" y="862" class="box-text">Demo &#x2462;&#x2463;: prepareNativeTestFile() &#x751F;&#x6210; cacheDir/native_test.txt &#x518D;&#x7ECF; JNI &#x4F20;&#x5165; Native</text>
  <text x="104" y="882" class="box-text">&#x6784;&#x5EFA;&#x94FE;: build.gradle.kts -&gt; CMakeLists.txt -&gt; libsan.so -&gt; System.loadLibrary</text>
  <rect x="980" y="88" width="220" height="132" rx="10" fill="#fff" stroke="#cfd8dc"/>
  <text x="1000" y="112" class="box-title">&#x56FE;&#x4F8B;</text>
  <rect x="1000" y="124" width="16" height="16" rx="3" fill="url(#uiGrad)"/><text x="1024" y="137" class="legend-text">UI &#x8868;&#x73B0;&#x5C42;</text>
  <rect x="1000" y="148" width="16" height="16" rx="3" fill="url(#ctrlGrad)"/><text x="1024" y="161" class="legend-text">Activity &#x63A7;&#x5236;</text>
  <rect x="1000" y="172" width="16" height="16" rx="3" fill="url(#bizGrad)"/><text x="1024" y="185" class="legend-text">JVM &#x6C99;&#x7BB1;&#x903B;&#x8F91;</text>
  <rect x="1000" y="196" width="16" height="16" rx="3" fill="url(#jniGrad)"/><text x="1024" y="209" class="legend-text">JNI &#x6865;&#x63A5;</text>
</svg>